<svg width="70px"  id="Layer_1" data-name="Layer 1" xmlns="http://www.w3.org/2000/svg" viewBox="0 0 291.96 291.96">
   <defs>
      <style>.cls-1{fill:#a18a71;}.cls-2{fill:#4c3c3b;}.cls-3{fill:#f9f7f2;}.cls-4{fill:#a8a19a;}</style>
   </defs>
   <path class="cls-1" d="M146,292C65.49,292,0,226.47,0,146S65.49,0,146,0,292,65.49,292,146,226.48,292,146,292Zm0-284c-76.12,0-138,61.92-138,138S69.86,284,146,284,284,222.1,284,146,222.1,7.94,146,7.94Z"/>
   <path class="cls-2" d="M213.89,74.49a2.55,2.55,0,0,1,0,3.6L108.61,183.37q-9.93,9.93-20.74,18.91l-10.54,8.77,8.76-10.55q9-10.8,18.92-20.73L210.28,74.49A2.55,2.55,0,0,1,213.89,74.49Z"/>
   <path class="cls-3" d="M212.31,76.06a1,1,0,0,1,0,1.43L198,91.85a1,1,0,0,1-1.43,0,1,1,0,0,1,0-1.43l14.36-14.36A1,1,0,0,1,212.31,76.06Z"/>
   <path class="cls-3" d="M190.38,96.49,175.43,111l-15.24,15c-5.55,5.52-11.47,11.4-17.38,17.29S131,155.18,125.52,160.73L110.5,176,96,190.92l15-14.55,15.23-15,17.39-17.29,17.29-17.39,15-15.23Z"/>
   <path class="cls-2" d="M78.07,74.49a2.55,2.55,0,0,0,0,3.6L183.35,183.37q9.93,9.93,20.74,18.91l10.54,8.77-8.76-10.55q-9-10.8-18.91-20.73L81.68,74.49A2.55,2.55,0,0,0,78.07,74.49Z"/>
   <path class="cls-3" d="M79.65,76.06a1,1,0,0,0,0,1.43L94,91.85a1,1,0,0,0,1.43,0,1,1,0,0,0,0-1.43L81.08,76.06A1,1,0,0,0,79.65,76.06Z"/>
   <path class="cls-3" d="M101.58,96.49l15,14.55,15.23,15,17.39,17.29,17.29,17.38,15,15.24L196,190.92l-14.95-14.55-15.24-15-17.38-17.29-17.29-17.39-15-15.23Z"/>
   <path class="cls-1" d="M184.48,223.77H184v-3.26a3,3,0,0,0-3-3H168l-.42-.56c0-.06-4.59-6.29-2.47-11.74a16.35,16.35,0,0,0,1.2-6.9,1.5,1.5,0,0,1,0-.22h1.27v1.5A1.52,1.52,0,0,0,168.8,201v3.47a1.85,1.85,0,0,0,3.7,0v-7.19h.22a.76.76,0,0,1,.76.76v8.26a2.28,2.28,0,0,0,2.27,2.28h.19v.27a.38.38,0,0,0,.38.38.36.36,0,0,0,.32-.2h.28a.66.66,0,0,0,.45-.17.67.67,0,0,1,.64-.15l3.63.6a1.51,1.51,0,1,0,0-3L178,207a.67.67,0,0,1-.64-.15.66.66,0,0,0-.45-.17h-.28a.36.36,0,0,0-.32-.2.38.38,0,0,0-.38.38v.27h-.19a.76.76,0,0,1-.76-.76v-8.26a2.27,2.27,0,0,0-2.27-2.27h-.22v-7.19a1.85,1.85,0,1,0-3.7,0v3.47a1.51,1.51,0,0,0-1.28,1.49v1.5h-2.08a8,8,0,0,0-6.34-4.51,15.26,15.26,0,0,0-1.76-.09v-1.16h1.15a.68.68,0,0,0,.16-1.34v-3.31a.68.68,0,0,0-.16-1.34h-1.15v-.71H157V181h-.38v1.66h-.38v.71h-1.15a.69.69,0,0,0-.68.68.68.68,0,0,0,.52.66V188a.68.68,0,0,0-.52.66.69.69,0,0,0,.68.68h1.15v1.21a18.64,18.64,0,0,0-2.6.4c-.11,0-11.17,2.83-18.21,1.6-4.62-.74-6-3-6.45-3.92a2.07,2.07,0,0,0-1.91-1.24h-.71v-2.76a.57.57,0,0,0-1.14,0v2.76h-1a1,1,0,0,0-1,1v6.81h-2.69a1,1,0,0,0,.07-.34.92.92,0,1,0-.92.91h3.54v11.87a1,1,0,0,0,1,1h1.63v2.94a.38.38,0,0,0,.38.38h.1l.15,3.91.16-3.91h.09a.38.38,0,0,0,.38-.38v-.76h.46a.11.11,0,0,0,.11.1h.25a.55.55,0,0,0,.31.42c.27.13.58,0,.58-.29a.53.53,0,0,0-.15-.35.1.1,0,0,1,0-.14.49.49,0,0,0,.15-.34c0-.32-.31-.43-.58-.3a.59.59,0,0,0-.31.42h-.25a.12.12,0,0,0-.11.1H127v-1.8h1.29a2.1,2.1,0,0,0,2.09-2.09V204.7a4.28,4.28,0,0,1,2.32-4,7.52,7.52,0,0,1,2.53-.84h0c9.21-.55,14.27.82,16.89,2.06a4.69,4.69,0,0,1,2.62,4.9c-.67,4.46-4.43,10.09-4.47,10.15l-.35.52H119.74a3,3,0,0,0-3,3v3.26h-.45a.78.78,0,0,0-.78.77v2.88a.77.77,0,0,0,.78.77h68.23a.76.76,0,0,0,.77-.77v-2.88A.77.77,0,0,0,184.48,223.77Zm-58.94-39.14a.21.21,0,1,1,.42,0v.78a.21.21,0,0,1-.42,0Zm-6,10.76a.53.53,0,0,1-.53-.53.53.53,0,0,1,.53-.53.52.52,0,0,1,.53.53A.53.53,0,0,1,119.57,195.39Z"/>
   <path class="cls-1" d="M155.12,184.92,155,185c-.1.08-.24.21-.44.36a11.71,11.71,0,0,1-1.81,1.14,12,12,0,0,1-3.16,1,17,17,0,0,1-4.3.19,34.75,34.75,0,0,1-5-.82c-1.76-.41-3.59-.92-5.49-1.44a49.12,49.12,0,0,0-5.89-1.33,14.52,14.52,0,0,0-3.09-.13,7.27,7.27,0,0,0-3,.85,8.07,8.07,0,0,0-1.26.91,8.17,8.17,0,0,0-1.08,1.12,6.8,6.8,0,0,0-1.33,2.74,8.35,8.35,0,0,0-.1,3,14.61,14.61,0,0,0,.71,2.88,37.94,37.94,0,0,0,2.35,5.14c.86,1.58,1.71,3,2.48,4.43s1.46,2.64,2,3.8a17.38,17.38,0,0,1,1.15,3.11,7.26,7.26,0,0,1,.23,2.12,4.42,4.42,0,0,1-.07.56l0,.19s0-.07,0-.2a5.29,5.29,0,0,0,0-.55,8.87,8.87,0,0,0-.29-2.09,17.53,17.53,0,0,0-1.15-3.09c-.54-1.16-1.22-2.42-2-3.79s-1.63-2.84-2.48-4.43a35.32,35.32,0,0,1-2.37-5.15,15.67,15.67,0,0,1-.72-2.91,8.87,8.87,0,0,1,.09-3.08,7,7,0,0,1,1.37-2.81,9,9,0,0,1,2.37-2.06,7.36,7.36,0,0,1,3-.88,14.75,14.75,0,0,1,3.12.13,49.62,49.62,0,0,1,5.92,1.33c1.89.51,3.72,1,5.47,1.43a33.43,33.43,0,0,0,5,.81,16.62,16.62,0,0,0,4.25-.19,12,12,0,0,0,3.1-1,10.63,10.63,0,0,0,1.78-1.12c.2-.14.34-.28.44-.35l.15-.13Z"/>
   <path class="cls-3" d="M156.77,184.87h0Z"/>
   <path class="cls-3" d="M156.77,185.12h0Z"/>
   <path class="cls-3" d="M156.77,185.42h0Z"/>
   <path class="cls-3" d="M156.77,185.72h0Z"/>
   <path class="cls-3" d="M156.77,186h0Z"/>
   <path class="cls-3" d="M156.77,186.31h0Z"/>
   <path class="cls-3" d="M156.77,186.6h0Z"/>
   <path class="cls-3" d="M156.77,186.9h0Z"/>
   <path class="cls-3" d="M156.77,187.2h0Z"/>
   <path class="cls-3" d="M156.77,187.49h0Z"/>
   <path class="cls-3" d="M156.77,187.79h0Z"/>
   <path class="cls-3" d="M168.8,201v-3.16l-.32,3.07A1.68,1.68,0,0,0,168.8,201Z"/>
   <path class="cls-3" d="M166.25,198.05h0c0-.12,0-.27,0-.47a8.39,8.39,0,0,0-.19-1.51,6.78,6.78,0,0,0-.28-1h-.35A8.17,8.17,0,0,1,166.25,198.05Z"/>
   <path class="cls-3" d="M150.46,216.7l-.16.25-.35.52h8.31Z"/>
   <path class="cls-3" d="M163.62,194.83a7.8,7.8,0,0,1,1.17,5.1,15.12,15.12,0,0,1-.5,2.83c-.22.87-.58,1.69-.83,2.55-1,3.4,0,7,1.65,10a19.09,19.09,0,0,1-1.57-5.31,11.5,11.5,0,0,1,.64-5.48,15.3,15.3,0,0,0,1-5.68,7.1,7.1,0,0,0-1.84-4.77,6.68,6.68,0,0,0-4.2-2A6.84,6.84,0,0,1,163.62,194.83Z"/>
   <path class="cls-3" d="M129.69,191.58a12.08,12.08,0,0,0,6.46,2.36,29.65,29.65,0,0,0,6-.08c-1,0-2,0-3-.05-4.09-.17-9.34-1-11.47-5A6.65,6.65,0,0,0,129.69,191.58Z"/>
   <path class="cls-3" d="M124.42,203.85c.14-5,.14-10-.14-15-.06,1.14-.11,2.28-.14,3.42-.14,5-.14,10,.14,15C124.35,206.13,124.39,205,124.42,203.85Z"/>
   <path class="cls-3" d="M171.79,201.53c.15-4.48.13-9-.15-13.47-.06,1.05-.11,2.09-.14,3.14-.14,4.47-.13,9,.14,13.44C171.71,203.6,171.76,202.57,171.79,201.53Z"/>
   <path class="cls-3" d="M172.23,223.66l-14.88-.06H141.46c-5,0-9.94,0-14.91.09l-8.08.08h.14l9.89.11q7.44,0,14.87.07,7.95,0,15.89,0,7.45,0,14.91-.08l8.08-.09h-.14C178.82,223.72,175.52,223.69,172.23,223.66Z"/>
   <path class="cls-3" d="M159.77,195.13c1.13.4,2.54,1.2,2.72,2.52s-1,2.28-2,2.8a9.77,9.77,0,0,1-3.6.88,7.85,7.85,0,0,0,4.5-1,2.75,2.75,0,0,0,1.38-3.38,5,5,0,0,0-3.35-2.37c-2.51-.68-5.92-.33-7.73,1.73a6.72,6.72,0,0,1,3.75-1.58A9.67,9.67,0,0,1,159.77,195.13Z"/>
   <path class="cls-3" d="M174.47,198c.06,1.19,0,2.41,0,3.6s0,2.43,0,3.64a4,4,0,0,0,.15,1.65,1.27,1.27,0,0,0,1.13.68,1.23,1.23,0,0,1-1-.66,3.47,3.47,0,0,1-.11-1.54c0-1.21,0-2.42,0-3.62s0-2.42,0-3.63a1.87,1.87,0,0,0-1.88-1.85A1.83,1.83,0,0,1,174.47,198Z"/>
   <path class="cls-3" d="M182.23,206.68a1.47,1.47,0,0,0-.83,0,26.62,26.62,0,0,0-3.3.73c1.27,0,2.51-.34,3.77-.42a1.15,1.15,0,0,1,1.06.86A1,1,0,0,0,182.23,206.68Z"/>
   <path class="cls-1" d="M160.13,92.61h0c-.56-5.27-2.19-20.14-3.41-24.25C155.31,63.68,146,63.77,146,63.77s-9.33-.09-10.73,4.59c-1.23,4.11-2.86,19-3.42,24.25h0s-7.84,7.93,7.43,10.6a39.22,39.22,0,0,0,13.44,0C168,100.54,160.13,92.61,160.13,92.61Z"/>
   <path class="cls-3" d="M136.37,68.31a35.38,35.38,0,0,0,9.69,1.57,35.82,35.82,0,0,0,9.69-1.57A21.89,21.89,0,0,1,136.37,68.31Z"/>
   <path class="cls-3" d="M132.05,94.08c-.58,2,1.72,3.35,3.27,3.92A23.72,23.72,0,0,0,142,99.21a55.76,55.76,0,0,0,7.08.07,30.28,30.28,0,0,0,6.77-1c1.76-.52,4.69-1.83,4-4.18,1.07,2-1.34,3.7-2.85,4.34a21,21,0,0,1-6.85,1.38,58.24,58.24,0,0,1-7.59.06,27.34,27.34,0,0,1-6.9-1.13,7,7,0,0,1-3.06-1.79A2.62,2.62,0,0,1,132.05,94.08Z"/>
   <path class="cls-3" d="M158.73,87.42a.63.63,0,0,0,.66.58.85.85,0,0,0,.23,0c0-.36-.08-.72-.12-1.1l-.11,0A.63.63,0,0,0,158.73,87.42Z"/>
   <path class="cls-3" d="M156.5,87.94a.58.58,0,1,0,.65.58A.62.62,0,0,0,156.5,87.94Z"/>
   <ellipse class="cls-3" cx="153.54" cy="89.35" rx="0.65" ry="0.58"/>
   <path class="cls-3" d="M150.53,89.32a.62.62,0,0,0-.65.58.61.61,0,0,0,.65.57.62.62,0,0,0,.66-.57A.63.63,0,0,0,150.53,89.32Z"/>
   <path class="cls-3" d="M147.5,89.59a.58.58,0,1,0,0,1.16.58.58,0,1,0,0-1.16Z"/>
   <path class="cls-3" d="M144.46,89.59a.58.58,0,1,0,.65.58A.62.62,0,0,0,144.46,89.59Z"/>
   <path class="cls-3" d="M141.43,89.32a.58.58,0,1,0,.65.57A.62.62,0,0,0,141.43,89.32Z"/>
   <path class="cls-3" d="M138.42,88.77a.58.58,0,1,0,.66.58A.62.62,0,0,0,138.42,88.77Z"/>
   <path class="cls-3" d="M135.47,87.94a.58.58,0,1,0,0,1.16.58.58,0,1,0,0-1.16Z"/>
   <path class="cls-3" d="M133.23,87.42a.62.62,0,0,0-.65-.58l-.12,0c0,.38-.08.74-.12,1.1a.86.86,0,0,0,.24,0A.62.62,0,0,0,133.23,87.42Z"/>
   <path class="cls-3" d="M158.53,84.66a.62.62,0,0,0,.65.58l.13,0c-.05-.37-.09-.75-.14-1.13A.61.61,0,0,0,158.53,84.66Z"/>
   <path class="cls-3" d="M156.33,86.33a.58.58,0,1,0,0-1.16.58.58,0,1,0,0,1.16Z"/>
   <path class="cls-3" d="M153.42,87.15a.58.58,0,1,0,0-1.16.58.58,0,1,0,0,1.16Z"/>
   <path class="cls-3" d="M150.46,87.69a.61.61,0,0,0,.65-.57.65.65,0,0,0-1.29,0A.61.61,0,0,0,150.46,87.69Z"/>
   <path class="cls-3" d="M147.48,88a.58.58,0,1,0,0-1.16.58.58,0,1,0,0,1.16Z"/>
   <path class="cls-3" d="M144.48,86.81a.58.58,0,1,0,.65.58A.61.61,0,0,0,144.48,86.81Z"/>
   <path class="cls-3" d="M141.5,86.54a.61.61,0,0,0-.64.58.61.61,0,0,0,.64.57.6.6,0,0,0,.64-.57A.61.61,0,0,0,141.5,86.54Z"/>
   <path class="cls-3" d="M138.54,86a.58.58,0,1,0,.65.58A.61.61,0,0,0,138.54,86Z"/>
   <path class="cls-3" d="M135.63,85.17a.58.58,0,1,0,.65.58A.61.61,0,0,0,135.63,85.17Z"/>
   <path class="cls-3" d="M133.43,84.66a.61.61,0,0,0-.64-.58c0,.38-.09.76-.13,1.13a.5.5,0,0,0,.13,0A.61.61,0,0,0,133.43,84.66Z"/>
   <path class="cls-3" d="M158.18,81.89a.61.61,0,0,0,.63.58.76.76,0,0,0,.16,0c0-.37-.09-.75-.14-1.12h0A.61.61,0,0,0,158.18,81.89Z"/>
   <path class="cls-3" d="M156.66,83a.6.6,0,0,0-.62-.58.58.58,0,1,0,0,1.16A.6.6,0,0,0,156.66,83Z"/>
   <path class="cls-3" d="M153.84,83.8a.63.63,0,1,0-.63.58A.61.61,0,0,0,153.84,83.8Z"/>
   <path class="cls-3" d="M150.34,84.93a.58.58,0,1,0-.63-.58A.6.6,0,0,0,150.34,84.93Z"/>
   <ellipse class="cls-3" cx="147.44" cy="84.62" rx="0.62" ry="0.58"/>
   <ellipse class="cls-3" cx="144.53" cy="84.62" rx="0.62" ry="0.58"/>
   <path class="cls-3" d="M141.63,83.77a.58.58,0,1,0,.62.58A.61.61,0,0,0,141.63,83.77Z"/>
   <path class="cls-3" d="M138.75,83.23a.6.6,0,0,0-.62.58.63.63,0,0,0,1.25,0A.61.61,0,0,0,138.75,83.23Z"/>
   <ellipse class="cls-3" cx="135.92" cy="82.99" rx="0.62" ry="0.58"/>
   <path class="cls-3" d="M133.78,81.89a.6.6,0,0,0-.62-.58h0c0,.37-.1.75-.14,1.12a.86.86,0,0,0,.17,0A.6.6,0,0,0,133.78,81.89Z"/>
   <path class="cls-3" d="M157.84,79.12a.6.6,0,0,0,.61.58.47.47,0,0,0,.17,0c-.05-.38-.09-.75-.14-1.12h0A.6.6,0,0,0,157.84,79.12Z"/>
   <path class="cls-3" d="M156.35,80.22a.59.59,0,0,0-.61-.58.58.58,0,1,0,0,1.15A.59.59,0,0,0,156.35,80.22Z"/>
   <path class="cls-3" d="M153.58,81a.61.61,0,1,0-.61.58A.59.59,0,0,0,153.58,81Z"/>
   <path class="cls-3" d="M150.17,82.16a.58.58,0,1,0,0-1.16.58.58,0,1,0,0,1.16Z"/>
   <path class="cls-3" d="M147.34,82.43a.59.59,0,0,0,.61-.57.61.61,0,0,0-1.21,0A.58.58,0,0,0,147.34,82.43Z"/>
   <path class="cls-3" d="M144.51,82.44a.58.58,0,1,0-.6-.58A.59.59,0,0,0,144.51,82.44Z"/>
   <path class="cls-3" d="M141.7,81a.59.59,0,0,0-.61.58.59.59,0,0,0,.61.57.59.59,0,0,0,.61-.57A.6.6,0,0,0,141.7,81Z"/>
   <path class="cls-3" d="M138.91,80.46a.58.58,0,1,0,.61.58A.59.59,0,0,0,138.91,80.46Z"/>
   <path class="cls-3" d="M136.18,79.64a.58.58,0,1,0,.61.58A.59.59,0,0,0,136.18,79.64Z"/>
   <path class="cls-3" d="M134.12,79.12a.59.59,0,0,0-.61-.58h0l-.15,1.12a.47.47,0,0,0,.17,0A.59.59,0,0,0,134.12,79.12Z"/>
   <path class="cls-3" d="M157.59,76.36a.59.59,0,0,0,.59.58l.07,0c-.05-.38-.1-.75-.16-1.12A.57.57,0,0,0,157.59,76.36Z"/>
   <path class="cls-3" d="M156.15,77.45a.59.59,0,0,0-.6-.58.58.58,0,1,0,0,1.16A.59.59,0,0,0,156.15,77.45Z"/>
   <path class="cls-3" d="M152.86,78.85a.58.58,0,1,0-.59-.58A.58.58,0,0,0,152.86,78.85Z"/>
   <path class="cls-3" d="M150.13,79.39a.58.58,0,1,0-.6-.57A.59.59,0,0,0,150.13,79.39Z"/>
   <path class="cls-3" d="M147.37,78.51a.58.58,0,1,0,.59.58A.59.59,0,0,0,147.37,78.51Z"/>
   <path class="cls-3" d="M144.6,78.51a.58.58,0,1,0,0,1.16.58.58,0,1,0,0-1.16Z"/>
   <path class="cls-3" d="M141.84,78.24a.58.58,0,1,0,0,1.16.58.58,0,1,0,0-1.16Z"/>
   <ellipse class="cls-3" cx="139.1" cy="78.27" rx="0.59" ry="0.58"/>
   <path class="cls-3" d="M136.41,76.87a.58.58,0,1,0,0,1.16.58.58,0,1,0,0-1.16Z"/>
   <path class="cls-3" d="M134.37,76.36a.57.57,0,0,0-.5-.56c-.05.37-.11.74-.16,1.12l.07,0A.58.58,0,0,0,134.37,76.36Z"/>
   <path class="cls-3" d="M157.29,73.59a.58.58,0,0,0,.56.58c-.06-.39-.12-.76-.18-1.12A.58.58,0,0,0,157.29,73.59Z"/>
   <path class="cls-3" d="M155.86,74.68a.58.58,0,1,0-.58.58A.58.58,0,0,0,155.86,74.68Z"/>
   <circle class="cls-3" cx="152.64" cy="75.5" r="0.58"/>
   <path class="cls-3" d="M150,76.63a.58.58,0,1,0-.58-.58A.58.58,0,0,0,150,76.63Z"/>
   <path class="cls-3" d="M147.28,76.9a.58.58,0,1,0-.58-.58A.58.58,0,0,0,147.28,76.9Z"/>
   <circle class="cls-3" cx="144.58" cy="76.32" r="0.58"/>
   <path class="cls-3" d="M141.9,75.47a.58.58,0,1,0,.58.58A.58.58,0,0,0,141.9,75.47Z"/>
   <path class="cls-3" d="M139.25,74.93a.58.58,0,0,0-.58.58.57.57,0,0,0,.58.57.56.56,0,0,0,.57-.57A.57.57,0,0,0,139.25,74.93Z"/>
   <circle class="cls-3" cx="136.64" cy="74.69" r="0.58"/>
   <path class="cls-3" d="M134.68,73.59a.58.58,0,0,0-.39-.54c-.06.36-.12.73-.18,1.12A.58.58,0,0,0,134.68,73.59Z"/>
   <path class="cls-3" d="M156.76,70.82a.57.57,0,0,0,.55.58h.08c-.08-.39-.15-.77-.22-1.11A.56.56,0,0,0,156.76,70.82Z"/>
   <path class="cls-3" d="M155.42,71.92a.57.57,0,0,0-.55-.58.58.58,0,0,0,0,1.16A.57.57,0,0,0,155.42,71.92Z"/>
   <path class="cls-3" d="M152.92,72.74a.57.57,0,0,0-.55-.58.58.58,0,0,0,0,1.16A.57.57,0,0,0,152.92,72.74Z"/>
   <path class="cls-3" d="M149.83,73.87a.58.58,0,0,0,0-1.16.58.58,0,0,0,0,1.16Z"/>
   <path class="cls-3" d="M147.27,74.14a.58.58,0,1,0-.56-.58A.57.57,0,0,0,147.27,74.14Z"/>
   <path class="cls-3" d="M144.7,73a.58.58,0,1,0,.55.58A.57.57,0,0,0,144.7,73Z"/>
   <path class="cls-3" d="M142.13,72.7a.58.58,0,0,0,0,1.16.58.58,0,0,0,0-1.16Z"/>
   <path class="cls-3" d="M139.59,72.16a.58.58,0,1,0,.56.57A.57.57,0,0,0,139.59,72.16Z"/>
   <path class="cls-3" d="M137.09,71.34a.58.58,0,1,0,.56.58A.57.57,0,0,0,137.09,71.34Z"/>
   <path class="cls-3" d="M135.2,70.82a.55.55,0,0,0-.41-.54c-.07.34-.14.72-.21,1.11h.07A.57.57,0,0,0,135.2,70.82Z"/>
   <path class="cls-1" d="M233.42,146.83a5.84,5.84,0,0,0-5.95,5.18L217,151.73a3,3,0,0,1-1.46-.41c-19.18-11.06-43.16-17.67-43.16-17.67s11,11.06,31.4,19.38l9.53,4.08,3.21-1.92a3.09,3.09,0,0,1,1.35-.42l8.58-.65c2.67-.19,2.17.67,4.13,1.75a6.17,6.17,0,0,0,.58.29.75.75,0,0,1,.45.78l-.22,2.27a.78.78,0,0,0,.46.8.74.74,0,0,0,1-.45l.7-2.07a.78.78,0,0,1,.81-.52c1.92.19,4.06-.21,5.15-2.27C241.51,150.84,238.46,146.7,233.42,146.83Zm5.1,5.63c-.42,2.6-2.68,3.28-5.07,2.93s-4.32-2.07-4-4,2.67-3.37,5.06-3S238.84,150.53,238.52,152.46Z"/>
   <path class="cls-1" d="M192.26,113.75l14.34,44.3a3.09,3.09,0,0,0,1.2,1.6l6,4.11c-3.68,2.92-1.95,10.58-1.95,10.58.06.23.13.48.2.73h0a41.45,41.45,0,0,0,2,7.3.71.71,0,0,0,1,.32l.89-.49,0-.09c1.79,2,4,3.22,6.12,1.94a5.2,5.2,0,0,0,2.23-2.61,6.79,6.79,0,0,0,.12-4.66l-2.49-7.71c-1.35-4.44-7.61-9-8.88-9.89a.42.42,0,0,1-.15-.43l.47-1.64c-2.58-14-11.91-35.6-11.91-35.6C199.07,115.66,192.26,113.75,192.26,113.75Zm29.12,59.48c1.52,4.61,2.33,8.09-.43,9.11-2,.71-5.15-2.55-6.67-7.15s-.81-8.87,1.18-9.53S219.86,168.63,221.38,173.23Z"/>
   <path class="cls-3" d="M210,150.28a1.86,1.86,0,1,1-2.63,0A1.85,1.85,0,0,1,210,150.28Z"/>
   <path class="cls-1" d="M210.18,151.6a2.86,2.86,0,0,0-.49-.22,3.23,3.23,0,0,0-.69-.14,3.33,3.33,0,0,0-.14-.7,2.53,2.53,0,0,0-.22-.48,2.53,2.53,0,0,0-.22.48,3.33,3.33,0,0,0-.14.7,4.37,4.37,0,0,0-.7.13,2.94,2.94,0,0,0-.48.23,2.53,2.53,0,0,0,.48.22,2.81,2.81,0,0,0,.7.13,3.2,3.2,0,0,0,.14.7,2.53,2.53,0,0,0,.22.48,2.53,2.53,0,0,0,.22-.48,3.2,3.2,0,0,0,.14-.7,2.73,2.73,0,0,0,.69-.13A2.86,2.86,0,0,0,210.18,151.6Z"/>
   <path class="cls-3" d="M203.61,149.66c-.13.31-.28.63-.43,1l-.22.52a.1.1,0,0,1-.07.07h0l-.07,0c-1.52-.64-3.27-1.46-5.14-2.33s-3.85-1.85-5.81-2.86-3.89-2.06-5.68-3.1c-.89-.52-1.75-1-2.55-1.53s-1.56-1-2.25-1.44c-1.38-.92-2.5-1.72-3.27-2.31-.39-.28-.68-.52-.88-.68l-.32-.25.3.26c.2.17.48.42.86.73s.83.67,1.36,1.09,1.15.86,1.82,1.34,1.42,1,2.21,1.51,1.65,1.06,2.53,1.59c1.77,1.09,3.7,2.18,5.65,3.22s3.92,2,5.79,2.93,3.65,1.66,5.19,2.29a.71.71,0,0,0,.22.07.69.69,0,0,0,.25,0,.6.6,0,0,0,.35-.33l.22-.55c.14-.36.26-.69.37-1,.24-.63.43-1.18.58-1.64.31-.92.46-1.46.46-1.46s-.26.49-.69,1.36C204.13,148.51,203.89,149,203.61,149.66Z"/>
   <path class="cls-3" d="M195.42,120.91c.4,1.25.84,2.71,1.34,4.26s1,3.21,1.58,4.87,1.1,3.3,1.62,4.84,1,3,1.45,4.22.8,2.26,1.06,3l.41,1.12s-.13-.41-.34-1.15-.53-1.77-.92-3-.84-2.71-1.34-4.26l-1.58-4.87c-.55-1.65-1.1-3.3-1.62-4.84s-1-3-1.45-4.22-.8-2.26-1.06-3l-.41-1.12s.13.41.34,1.14S195,119.67,195.42,120.91Z"/>
   <path class="cls-3" d="M202.25,144.59c1.72.78,3.46,1.59,5.19,2.44h0l-5.39-3Z"/>
   <polygon class="cls-3" points="213.16 157.57 213.29 157.11 210.1 155.75 213.16 157.57"/>
   <path class="cls-3" d="M231.37,155.64l-.16-.08-.34-.18a6.42,6.42,0,0,1-.65-.41c-.42-.29-.78-.67-1.2-1a2.56,2.56,0,0,0-1.31-.41,5.56,5.56,0,0,0-1,0l-.36,0h.36a7.54,7.54,0,0,1,.94.07,2.58,2.58,0,0,1,1.2.45c.39.27.75.67,1.19,1a5.84,5.84,0,0,0,.68.41l.34.17.18.09.15.08a1.2,1.2,0,0,1,.43.47,1.1,1.1,0,0,1,.12.58c-.05.78-.06,1.31-.06,1.31s0-.13.06-.35.08-.55.13-.95a1.32,1.32,0,0,0-.57-1.23Z"/>
   <path class="cls-3" d="M237.39,149a5.4,5.4,0,0,0-1.37-.73A6.27,6.27,0,0,0,235,148l-.41-.05.4.09a7.61,7.61,0,0,1,1,.36,6.22,6.22,0,0,1,1.3.77,4.16,4.16,0,0,1,.63.57,4,4,0,0,1,.52.69,3.17,3.17,0,0,1,.5,1.61,4.38,4.38,0,0,1-.27,1.47,4.11,4.11,0,0,1-.49,1,2.77,2.77,0,0,1-.26.32,3.93,3.93,0,0,0,.3-.29,3.67,3.67,0,0,0,.58-.93,5.75,5.75,0,0,0,.23-.7,3.62,3.62,0,0,0,.11-.83,3.49,3.49,0,0,0-.5-1.72,5,5,0,0,0-1.23-1.3Z"/>
   <path class="cls-3" d="M222.43,181.8a3.12,3.12,0,0,1-1.13.79,2.22,2.22,0,0,1-1.53.11,4.29,4.29,0,0,1-1.43-.68,8.71,8.71,0,0,1-1.09-.9c-.29-.29-.53-.54-.69-.72s-.26-.29-.26-.29l.22.32c.15.19.36.47.64.78a7.91,7.91,0,0,0,1.06,1,4.78,4.78,0,0,0,1.5.74,2.75,2.75,0,0,0,.86.06,2.37,2.37,0,0,0,.8-.22,3,3,0,0,0,1.15-.89A2.86,2.86,0,0,0,223,181a1.6,1.6,0,0,0,.09-.37,2.33,2.33,0,0,1-.13.36A3,3,0,0,1,222.43,181.8Z"/>
   <path class="cls-3" d="M215.6,161.72c-.83-.67-1.42-1.07-1.42-1.07s.14.11.37.32l1,.85a38.3,38.3,0,0,1,2.78,2.72c.24.26.48.52.7.79s.43.53.64.79.39.52.55.77.33.49.46.73a6.64,6.64,0,0,1,.34.63,4.34,4.34,0,0,1,.24.5c.12.29.18.46.18.46l-.14-.47a3.65,3.65,0,0,0-.2-.53,4.74,4.74,0,0,0-.31-.66c-.11-.24-.27-.48-.42-.75s-.35-.53-.54-.8-.41-.55-.64-.81-.45-.54-.69-.81c-.49-.52-1-1-1.48-1.47S216,162.06,215.6,161.72Z"/>
   <path class="cls-1" d="M100.17,151.38v-18.9c2.68-1.7,3.24-3.64,3.35-4.33,0,0,0-.05,0-.07s0-.19,0-.19c0-2.56-7.87-4.63-17.57-4.63s-17.58,2.07-17.58,4.63a1.42,1.42,0,0,0,0,.19.17.17,0,0,0,0,.07c.11.69.67,2.63,3.35,4.33v18.9c-2.13,1.05-3.38,2.35-3.38,3.76,0,3.53,7.87,6.39,17.58,6.39s17.57-2.86,17.57-6.39C103.55,153.73,102.3,152.43,100.17,151.38Z"/>
   <path class="cls-3" d="M103.55,127.89a2.81,2.81,0,0,1-1.67,2.06,14.72,14.72,0,0,1-3.35,1.33,41,41,0,0,1-7.79,1.3,51.89,51.89,0,0,1-16.44-1.07,17.43,17.43,0,0,1-3.85-1.35c-.9-.48-2-1.15-2-2.27a2.76,2.76,0,0,0,1.73,1.91A15.89,15.89,0,0,0,73.56,131a44,44,0,0,0,7.74,1.1,58.62,58.62,0,0,0,16.35-.93,18.53,18.53,0,0,0,3.77-1.18C102.33,129.58,103.42,129,103.55,127.89Z"/>
   <path class="cls-3" d="M89.33,127.52c0,.48-1.5.88-3.35.88s-3.36-.4-3.36-.88,1.5-.89,3.36-.89S89.33,127,89.33,127.52Z"/>
   <path class="cls-3" d="M72.36,155.14A12.67,12.67,0,0,0,77,156.59a46.44,46.44,0,0,0,5.64.57,60.09,60.09,0,0,0,11.61-.46,14.05,14.05,0,0,0,5.32-1.56A11.62,11.62,0,0,1,95,156.9a40.11,40.11,0,0,1-5.68.73,47.61,47.61,0,0,1-11.68-.6A12.61,12.61,0,0,1,72.36,155.14Z"/>
   <path class="cls-3" d="M84.13,135.23a29.49,29.49,0,0,1-6.83-.53,17.06,17.06,0,0,1-5.52-2.13v.9a18.49,18.49,0,0,0,5.44,1.65A28.53,28.53,0,0,0,84.13,135.23Z"/>
   <path class="cls-3" d="M76,136.89a27.08,27.08,0,0,0,7.78.36,28,28,0,0,1-6.64-.58,16.48,16.48,0,0,1-5.38-2.1v.89l.12.06A18.13,18.13,0,0,0,76,136.89Z"/>
   <path class="cls-3" d="M76,138.88a27.16,27.16,0,0,0,7.53.4,29.69,29.69,0,0,1-6.38-.62,16.35,16.35,0,0,1-5.32-2.08v.9l.11.05A19.17,19.17,0,0,0,76,138.88Z"/>
   <path class="cls-3" d="M75.79,140.84a26.74,26.74,0,0,0,7.36.46,29.44,29.44,0,0,1-6.27-.68,16.75,16.75,0,0,1-5.1-2v.89l0,0A19,19,0,0,0,75.79,140.84Z"/>
   <path class="cls-3" d="M75.79,142.84a26.8,26.8,0,0,0,7,.48,29.45,29.45,0,0,1-5.92-.69,16.26,16.26,0,0,1-5.13-2v.9l0,0A18.35,18.35,0,0,0,75.79,142.84Z"/>
   <path class="cls-3" d="M82.51,145.34a29.26,29.26,0,0,1-5.9-.77,16,16,0,0,1-4.83-2v.89a17.31,17.31,0,0,0,3.77,1.29A26.63,26.63,0,0,0,82.51,145.34Z"/>
   <path class="cls-3" d="M82.18,147.36a29,29,0,0,1-5.71-.82,15.78,15.78,0,0,1-4.69-1.94v.9a17.44,17.44,0,0,0,3.36,1.19A26.88,26.88,0,0,0,82.18,147.36Z"/>
   <path class="cls-3" d="M81.86,149.38a29.68,29.68,0,0,1-5.46-.85,15.44,15.44,0,0,1-4.62-1.92v.9a17.16,17.16,0,0,0,3.2,1.14A27,27,0,0,0,81.86,149.38Z"/>
   <path class="cls-3" d="M81.53,151.41a31.23,31.23,0,0,1-5.34-.92,15.58,15.58,0,0,1-4.41-1.87v.89a17.14,17.14,0,0,0,3,1.1A28.2,28.2,0,0,0,81.53,151.41Z"/>
   <path class="cls-3" d="M81.21,153.43a31.36,31.36,0,0,1-5.08-1,15.2,15.2,0,0,1-4.35-1.86v.76a.71.71,0,0,0-.15.08A16.57,16.57,0,0,0,76,152.87,31,31,0,0,0,81.21,153.43Z"/>
   <circle class="cls-4" cx="260.7" cy="145.98" r="12.74"/>
   <path class="cls-3" d="M260.7,140.39a1.59,1.59,0,1,0,1.59,1.59A1.59,1.59,0,0,0,260.7,140.39Z"/>
   <path class="cls-3" d="M260.7,148.39a1.59,1.59,0,1,0,1.59,1.59A1.59,1.59,0,0,0,260.7,148.39Z"/>
   <path class="cls-3" d="M264.7,144.39a1.59,1.59,0,1,0,1.59,1.59A1.59,1.59,0,0,0,264.7,144.39Z"/>
   <path class="cls-3" d="M256.7,144.39a1.59,1.59,0,1,0,1.59,1.59A1.59,1.59,0,0,0,256.7,144.39Z"/>
   <path class="cls-3" d="M253.2,152.48a9.3,9.3,0,0,0,15,0,10.75,10.75,0,0,1-15,0Z"/>
   <path class="cls-3" d="M268.26,138.36a10.79,10.79,0,0,0-18,5,12.19,12.19,0,0,1,3.12-4.69,11,11,0,0,1,10.52-2.34,11.52,11.52,0,0,1,7.24,7A11.08,11.08,0,0,0,268.26,138.36Z"/>
   <path class="cls-3" d="M262.63,140.9a2.54,2.54,0,0,0-.35-.49,2.29,2.29,0,0,0-.51-.37,2.31,2.31,0,0,0-.56-.19,2,2,0,0,0-.55,0,1.86,1.86,0,0,0-.48.1,2,2,0,0,0-.36.18,1.46,1.46,0,0,0-.25.19.88.88,0,0,0-.14.15l-.05.05.06,0a.92.92,0,0,1,.16-.12l.26-.14a2.64,2.64,0,0,1,.37-.13,2.81,2.81,0,0,1,.44,0,2.18,2.18,0,0,1,.5,0,2.47,2.47,0,0,1,.49.19,2.73,2.73,0,0,1,.42.32,2.2,2.2,0,0,1,.33.44,1.84,1.84,0,0,1,.19.49,2.18,2.18,0,0,1,.06.49,2.13,2.13,0,0,1-.06.45,2.68,2.68,0,0,1-.12.37,2,2,0,0,1-.15.26,1.42,1.42,0,0,1-.11.16l0,.06.05-.05a.9.9,0,0,0,.14-.14,1.35,1.35,0,0,0,.19-.25,1.42,1.42,0,0,0,.18-.37,1.7,1.7,0,0,0,.11-.47,2.12,2.12,0,0,0,0-.56A2,2,0,0,0,262.63,140.9Z"/>
   <path class="cls-3" d="M262.63,148.91a2,2,0,0,0-.36-.5,2.19,2.19,0,0,0-.5-.36,2,2,0,0,0-.56-.19,1.71,1.71,0,0,0-.55,0,1.87,1.87,0,0,0-.48.11,1.51,1.51,0,0,0-.36.18,1.46,1.46,0,0,0-.25.19.9.9,0,0,0-.14.14l-.05.05.06,0a1,1,0,0,1,.16-.11l.26-.15.37-.12a2,2,0,0,1,.44-.05,1.73,1.73,0,0,1,.5.05,2.05,2.05,0,0,1,.92.51,1.9,1.9,0,0,1,.32.44,1.84,1.84,0,0,1,.19.49,2.05,2.05,0,0,1,.06.49,2.13,2.13,0,0,1-.06.45,3,3,0,0,1-.12.36,1.19,1.19,0,0,1-.15.26,1,1,0,0,1-.11.17l0,.05.05,0s.09-.08.14-.14a1.84,1.84,0,0,0,.37-.62,1.69,1.69,0,0,0,.11-.48,2.06,2.06,0,0,0,0-.55A2,2,0,0,0,262.63,148.91Z"/>
   <path class="cls-3" d="M266.83,145.47a2.31,2.31,0,0,0-.19-.56,2.66,2.66,0,0,0-.36-.5,2,2,0,0,0-1.62-.58,2.17,2.17,0,0,0-.47.1,1.81,1.81,0,0,0-.37.19,1.35,1.35,0,0,0-.25.19.9.9,0,0,0-.14.14l-.05.05.06,0,.16-.11.26-.15a2.68,2.68,0,0,1,.37-.12,2.12,2.12,0,0,1,.44-.06,2.2,2.2,0,0,1,.5.06,1.84,1.84,0,0,1,.49.19,2.18,2.18,0,0,1,.43.32,1.9,1.9,0,0,1,.33.43,1.94,1.94,0,0,1,.18.49,1.75,1.75,0,0,1,.06.5,2,2,0,0,1-.06.44,1.79,1.79,0,0,1-.12.37l-.14.26a.92.92,0,0,1-.12.16l0,.06.05-.05a.88.88,0,0,0,.15-.14,1.46,1.46,0,0,0,.19-.25,3,3,0,0,0,.18-.36,1.86,1.86,0,0,0,.1-.48A2,2,0,0,0,266.83,145.47Z"/>
   <path class="cls-3" d="M258.63,144.91a2.28,2.28,0,0,0-.36-.5,2.11,2.11,0,0,0-.5-.36,2,2,0,0,0-.56-.2,2.06,2.06,0,0,0-.55,0,2.14,2.14,0,0,0-.48.1,2.55,2.55,0,0,0-.37.19,1.89,1.89,0,0,0-.39.33l0,.05.05,0a1,1,0,0,1,.17-.11,1.19,1.19,0,0,1,.26-.15,3,3,0,0,1,.36-.12,2.13,2.13,0,0,1,.45-.06,2.05,2.05,0,0,1,.49.06,1.84,1.84,0,0,1,.49.19,1.72,1.72,0,0,1,.43.32,1.9,1.9,0,0,1,.33.43,2.47,2.47,0,0,1,.19.49,2.18,2.18,0,0,1,0,.5,2,2,0,0,1,0,.44c0,.14-.08.26-.12.37a2,2,0,0,1-.15.26,1,1,0,0,1-.11.16l0,.06.05-.05a.9.9,0,0,0,.14-.14,1.46,1.46,0,0,0,.19-.25,1.51,1.51,0,0,0,.18-.36,1.87,1.87,0,0,0,.11-.48,1.71,1.71,0,0,0,0-.55A2,2,0,0,0,258.63,144.91Z"/>
   <circle class="cls-4" cx="31.26" cy="145.98" r="12.74"/>
   <path class="cls-3" d="M31.26,140.39A1.59,1.59,0,1,0,32.85,142,1.59,1.59,0,0,0,31.26,140.39Z"/>
   <path class="cls-3" d="M31.26,148.39A1.59,1.59,0,1,0,32.85,150,1.6,1.6,0,0,0,31.26,148.39Z"/>
   <path class="cls-3" d="M35.27,144.39A1.59,1.59,0,1,0,36.86,146,1.59,1.59,0,0,0,35.27,144.39Z"/>
   <path class="cls-3" d="M27.26,144.39A1.59,1.59,0,1,0,28.85,146,1.59,1.59,0,0,0,27.26,144.39Z"/>
   <path class="cls-3" d="M23.76,152.48a9.31,9.31,0,0,0,15,0,11.19,11.19,0,0,1-7.43,3.05A11.12,11.12,0,0,1,23.76,152.48Z"/>
   <path class="cls-3" d="M38.82,138.36a10.79,10.79,0,0,0-18,5,12.42,12.42,0,0,1,3.12-4.69,11,11,0,0,1,10.53-2.34,11.54,11.54,0,0,1,7.24,7A11.19,11.19,0,0,0,38.82,138.36Z"/>
   <path class="cls-3" d="M33.2,140.9a2.21,2.21,0,0,0-.36-.49,2.48,2.48,0,0,0-.5-.37,2.31,2.31,0,0,0-.56-.19,2.06,2.06,0,0,0-.55,0,1.7,1.7,0,0,0-.48.1,2.13,2.13,0,0,0-.37.18l-.25.19a1.67,1.67,0,0,0-.14.15l0,.05.05,0,.16-.12.27-.14a2.49,2.49,0,0,1,.36-.13,3.1,3.1,0,0,1,.45,0,2.09,2.09,0,0,1,.49,0,2.26,2.26,0,0,1,.49.19,2.4,2.4,0,0,1,.43.32A2.2,2.2,0,0,1,33,141a2.26,2.26,0,0,1,.19.49,2.23,2.23,0,0,1,0,.94,2.64,2.64,0,0,1-.13.37,1.26,1.26,0,0,1-.14.26c0,.07-.09.12-.11.16l0,.06,0-.05a.9.9,0,0,0,.14-.14,2,2,0,0,0,.19-.25,1.82,1.82,0,0,0,.18-.37,2.16,2.16,0,0,0,.11-.47,1.78,1.78,0,0,0,0-.56A2,2,0,0,0,33.2,140.9Z"/>
   <path class="cls-3" d="M33.2,148.91a2.28,2.28,0,0,0-.36-.5,2.19,2.19,0,0,0-.5-.36,2,2,0,0,0-.56-.19,1.73,1.73,0,0,0-.55,0,1.69,1.69,0,0,0-.48.11,1.59,1.59,0,0,0-.37.18l-.25.19a1.82,1.82,0,0,0-.14.14l0,.05.05,0,.16-.11a1.63,1.63,0,0,1,.27-.15l.36-.12a2.14,2.14,0,0,1,.45-.05,1.67,1.67,0,0,1,.49.05A1.92,1.92,0,0,1,33,149a2.26,2.26,0,0,1,.19.49,2,2,0,0,1,0,.49,2.14,2.14,0,0,1,0,.45,3,3,0,0,1-.13.36.89.89,0,0,1-.14.26c0,.08-.09.13-.11.17l0,.05,0,0s.09-.08.14-.14l.19-.25a2.55,2.55,0,0,0,.18-.37,2.12,2.12,0,0,0,.11-.48,1.73,1.73,0,0,0,0-.55A2,2,0,0,0,33.2,148.91Z"/>
   <path class="cls-3" d="M37.4,145.47a2,2,0,0,0-.2-.56,2.28,2.28,0,0,0-.36-.5,1.77,1.77,0,0,0-.5-.36,2,2,0,0,0-.56-.2,2.06,2.06,0,0,0-.55,0,2.4,2.4,0,0,0-.48.1,2.55,2.55,0,0,0-.37.19,1.81,1.81,0,0,0-.25.19,1.43,1.43,0,0,0-.13.14l0,.05,0,0a1,1,0,0,1,.17-.11,1.5,1.5,0,0,1,.26-.15,3,3,0,0,1,.36-.12,2.13,2.13,0,0,1,.45-.06,2.05,2.05,0,0,1,.49.06,2,2,0,0,1,.92.51A1.9,1.9,0,0,1,37,145a2.47,2.47,0,0,1,.19.49,1.73,1.73,0,0,1,0,.5,2,2,0,0,1,0,.44c0,.14-.08.26-.12.37a2,2,0,0,1-.15.26.61.61,0,0,1-.11.16l0,.06,0-.05a.9.9,0,0,0,.14-.14,1.08,1.08,0,0,0,.19-.25,1.51,1.51,0,0,0,.18-.36,1.87,1.87,0,0,0,.11-.48A2,2,0,0,0,37.4,145.47Z"/>
   <path class="cls-3" d="M29.2,144.91a2.28,2.28,0,0,0-.36-.5,2.11,2.11,0,0,0-.5-.36,2,2,0,0,0-.56-.2,2.06,2.06,0,0,0-.55,0,2.14,2.14,0,0,0-.48.1,1.81,1.81,0,0,0-.37.19,1.35,1.35,0,0,0-.25.19.9.9,0,0,0-.14.14l0,.05.06,0,.16-.11a1.63,1.63,0,0,1,.27-.15,2.16,2.16,0,0,1,.36-.12,1.87,1.87,0,0,1,.94,0,1.84,1.84,0,0,1,.49.19,1.72,1.72,0,0,1,.43.32A1.9,1.9,0,0,1,29,145a2.47,2.47,0,0,1,.19.49,2.18,2.18,0,0,1,0,.5,2,2,0,0,1,0,.44,2.64,2.64,0,0,1-.13.37l-.14.26-.11.16-.05.06.06-.05.14-.14a1.46,1.46,0,0,0,.19-.25,2,2,0,0,0,.18-.36,1.86,1.86,0,0,0,.1-.48,2,2,0,0,0,0-.55A2,2,0,0,0,29.2,144.91Z"/>
   <path class="cls-2" d="M40.91,106.37,38.75,113l5.31,1.72,2.06-6.34L44,107.5l1-3L50,106.16,45,121.7,42.73,121l.29-2.22-13.33-4.32-1.06,2-2.25-.73.68-2.09,4.35-13.43,5.09,1.65-1,3-2.27-.54-2,6.29,4.67,1.51L38,105.44Z"/>
   <path class="cls-2" d="M48.27,103.79l.5-1.41L36.55,89l1.94-3.77,18,2.23.86-1.22,2.09,1.08-3.23,6.25-2.09-1.07.45-1.38-2.81-.43-3.06,6,2,2,.87-1.16,2.09,1.08-3.23,6.25Zm-1.73-9.33,2.18-4.21-7.19-1.08,0,.07Z"/>
   <path class="cls-2" d="M58.51,66.32l-1.85,2.5-2.47-1.16a5.38,5.38,0,0,0-1.39.93,9.38,9.38,0,0,0-1.51,1.62,4.52,4.52,0,0,0-1,2.52,2.09,2.09,0,0,0,.86,1.79,1.88,1.88,0,0,0,1.88.19,13.84,13.84,0,0,0,3.09-1.9,13.43,13.43,0,0,1,5-2.76,4.83,4.83,0,0,1,4.17.89,4.55,4.55,0,0,1,1.93,4,9.59,9.59,0,0,1-2.12,5.31,12.7,12.7,0,0,1-3.23,3.13,9.25,9.25,0,0,1-3.61,1.44L55,82.43l1.91-2.57,2.5,1.29A5.35,5.35,0,0,0,61,80.27a8.7,8.7,0,0,0,1.67-1.74,4.3,4.3,0,0,0,1-2.48,2,2,0,0,0-.89-1.75,2.19,2.19,0,0,0-1.95-.4,8.81,8.81,0,0,0-2.8,1.61,17.25,17.25,0,0,1-5.22,3,4.44,4.44,0,0,1-4.17-.73,4.6,4.6,0,0,1-1.86-4,9.23,9.23,0,0,1,1.94-5.22,13.07,13.07,0,0,1,3.13-3.09,10.56,10.56,0,0,1,3.43-1.56Z"/>
   <path class="cls-2" d="M69.25,46.51l3.65,3.71-2.27,2.23L69,51l-2.72,2.66,9.65,9.83,1.86-1.27,1.64,1.68-6.11,6-1.65-1.67L73,66.4l-9.64-9.82L60.6,59.23,62,60.91l-2.26,2.22-3.65-3.72Z"/>
   <path class="cls-2" d="M88.42,40.31l-2.53,1.8-2-1.87a5.58,5.58,0,0,0-1.62.45,9.8,9.8,0,0,0-1.93,1.08,4.4,4.4,0,0,0-1.75,2.07,2.1,2.1,0,0,0,.25,2,1.9,1.9,0,0,0,1.74.76,13.55,13.55,0,0,0,3.52-.84,13.41,13.41,0,0,1,5.6-1.07A4.81,4.81,0,0,1,93.4,46.8,4.56,4.56,0,0,1,94,51.24a9.61,9.61,0,0,1-3.67,4.39,12.89,12.89,0,0,1-4,2,9.26,9.26,0,0,1-3.88.24L80,54.52l2.62-1.86,2,2a5.25,5.25,0,0,0,1.85-.33,8.48,8.48,0,0,0,2.13-1.13,4.4,4.4,0,0,0,1.73-2,2.07,2.07,0,0,0-.3-2,2.22,2.22,0,0,0-1.73-1,8.87,8.87,0,0,0-3.16.67,17.42,17.42,0,0,1-5.92,1.27,4.45,4.45,0,0,1-3.73-2,4.58,4.58,0,0,1-.51-4.4,9.21,9.21,0,0,1,3.46-4.36,13.31,13.31,0,0,1,3.94-2,10.33,10.33,0,0,1,3.74-.42Z"/>
   <path class="cls-2" d="M89.24,35.48l-1.12-2.07,7.52-4.07,1.13,2.07L95,32.82l6.67,12.34,2.14-.7,1.12,2.07L97.4,50.59l-1.11-2.06,1.76-1.41L91.38,34.79Z"/>
   <path class="cls-2" d="M107.53,24.25a8.8,8.8,0,0,1,6.65-.06,7.64,7.64,0,0,1,4.36,4.63l1.14,3a7.65,7.65,0,0,1-.23,6.36,8.84,8.84,0,0,1-5,4.32l-8.7,3.27-.82-2.2,1.92-1.15-4.94-13.12-2.2.4-.83-2.22,2.06-.77Zm-1.7,3.86,4.76,12.65,2.56-1a4.44,4.44,0,0,0,2.77-2.55,5.42,5.42,0,0,0-.13-3.93l-1.15-3.05a5.36,5.36,0,0,0-2.48-3,4.41,4.41,0,0,0-3.77-.1Z"/>
   <path class="cls-2" d="M135.29,28.32l-6.89,1.26,1,5.49,6.56-1.2-.24-2.33,3.1-.57,1,5.25-16.08,3-.42-2.31,2.09-.79-2.52-13.8h-2.24L120.19,20l2.17-.39L136.24,17l1,5.27-3.13.57-.6-2.26L127,21.78l.88,4.83,6.88-1.26Z"/>
   <path class="cls-2" d="M165.83,23.82l-3.07-.2L162.5,21A4.31,4.31,0,0,0,161,20a6.25,6.25,0,0,0-2.17-.48,5,5,0,0,0-4.26,1.57,7.61,7.61,0,0,0-1.77,4.73l0,.68a7.61,7.61,0,0,0,1.12,4.93,4.9,4.9,0,0,0,4,2.13,7.14,7.14,0,0,0,2.25-.19,3.74,3.74,0,0,0,1.62-.81l.6-2.57,3.07.2L165.16,34a9,9,0,0,1-3.32,2,11.15,11.15,0,0,1-4.38.52,9.08,9.08,0,0,1-6.62-3.16,9.66,9.66,0,0,1-2.19-7.15l0-.65a9.72,9.72,0,0,1,3.09-6.81,9.1,9.1,0,0,1,7-2.28,10.89,10.89,0,0,1,4.27,1.1,9.29,9.29,0,0,1,3,2.39Z"/>
   <path class="cls-2" d="M166.05,37.08l.52-2.29,2.23.08,3.07-13.68-2.05-.87.51-2.31,2.15.49,4,.9,2.16.49-.51,2.3-2.25-.09-3,13.43,5.69,1.28.73-2.35,3.09.69-1.19,5.33Z"/>
   <path class="cls-2" d="M202.81,39.33a10,10,0,0,1-5.21,5.46,8.86,8.86,0,0,1-7.36-.15,8.72,8.72,0,0,1-5.07-5.27,10.07,10.07,0,0,1,.47-7.53l.13-.28A10.07,10.07,0,0,1,191,26.1a8.69,8.69,0,0,1,7.32.12,8.84,8.84,0,0,1,5.11,5.3,10,10,0,0,1-.45,7.54Zm-3.65-1.95a8.28,8.28,0,0,0,.74-5.05A4.5,4.5,0,0,0,197.05,29a4.4,4.4,0,0,0-4.32.17,8.56,8.56,0,0,0-3.16,4l-.13.29a8.64,8.64,0,0,0-.79,5.08,4.4,4.4,0,0,0,2.82,3.28,4.48,4.48,0,0,0,4.36-.15,8.48,8.48,0,0,0,3.2-4Z"/>
   <path class="cls-2" d="M225.42,42.55l-2.93,4.3-2.63-1.8,1.09-1.9L217.81,41l-7.76,11.36,1.6,1.59-1.33,1.93-7.07-4.83,1.32-1.94,2.05.92,7.77-11.37-3.13-2.14-1.37,1.71-2.62-1.78,2.94-4.3Z"/>
   <path class="cls-2" d="M227.14,46.9l1.69-1.65,6,6.12L233.12,53l-1.83-1.3-4,3.94,5.89,6,4-3.94-1.26-1.87,1.69-1.65,1.55,1.59,2.89,3,1.54,1.58L241.9,62l-1.83-1.3-10,9.8,1.26,1.87L229.62,74l-6-6.12,1.68-1.64,1.84,1.3L231,63.8l-5.9-6-3.84,3.75,1.26,1.87L220.84,65l-6-6.12,1.67-1.64,1.83,1.29,10-9.8Z"/>
   <path class="cls-2" d="M243.8,65l1.92-1.39,5,6.94-1.91,1.38-1.62-1.55-11.37,8.2,1,2L234.88,82l-5-6.94,1.91-1.37,1.62,1.56L244.77,67Z"/>
   <path class="cls-2" d="M262.86,92.28l-2.09,1.09-1.38-1.77-14.87,7.75-1.91-3.66,7.8-13.48,0-.07L241.15,87l.66,2.15-2.08,1.08-4-7.58,2.09-1.09,1.37,1.76,12.43-6.48L251,74.65l2.1-1.09,1,2L256,79.18l-7.8,13.48.05.07,9.2-4.8-.67-2.14,2.1-1.1,2.93,5.63Z"/>
   <path class="cls-2" d="M252.76,117.64a9.56,9.56,0,0,1-2.5-2.3,13.71,13.71,0,0,1-2.17-4.44,9.19,9.19,0,0,1,.52-7.29,9.33,9.33,0,0,1,5.8-4.55l.64-.2a10,10,0,0,1,7.58.35,8.85,8.85,0,0,1,4.63,5.64,12.88,12.88,0,0,1,.62,4.46,9.73,9.73,0,0,1-.9,3.78l-3.75,1.16-.91-2.93,2.33-1.33a4.46,4.46,0,0,0,.25-1.64,7.58,7.58,0,0,0-.37-2.13,5.12,5.12,0,0,0-3.06-3.46,7.76,7.76,0,0,0-5.17,0l-.67.21a7.23,7.23,0,0,0-4.1,2.82,5.18,5.18,0,0,0-.44,4.59,8.31,8.31,0,0,0,.79,1.87,4.2,4.2,0,0,0,.81,1l3.17-1-.67-2.88,2.62-.82,2.11,6.79Z"/>
   <path class="cls-2" d="M42.47,181.91l3.87,9.26c1.17,2.8,1,4.52-.52,5.15l-5.37,2.25c-1.52.63-2.86-.45-4-3.26l-2.17-5.19L28,192.73l-1.7-4.07Zm-3.36,12.44,4.65-1.94c.31-.13.47-.3.49-.53a2.82,2.82,0,0,0-.31-1.14l-1.66-4-6.17,2.58,1.66,4a2.78,2.78,0,0,0,.61,1A.72.72,0,0,0,39.11,194.35Z"/>
   <path class="cls-2" d="M44.32,209.4l-5.92,3.89L36,209.61,50.62,200l5.52,8.39q2.49,3.81.44,5.16l-4.58,3c-1.19.78-2.47.32-3.84-1.4l-3.3,8-2.61-4,3.39-7.74Zm7-4.61L46,208.29l2.37,3.61a2.8,2.8,0,0,0,.77.89.67.67,0,0,0,.71-.11l4-2.61c.28-.19.41-.39.39-.61a3,3,0,0,0-.52-1.07Z"/>
   <path class="cls-2" d="M54.43,230.83l6.1,6.43-1.48,1.41L49.88,229,62.6,217l8.93,9.42L70,227.77l-5.86-6.18-3.92,3.71,4.85,5.12-1.48,1.41-4.85-5.12Z"/>
   <path class="cls-2" d="M68.32,246.49l-3.17-2.22,10-14.36,4,2.78-1.93,11.9,10.52-5.9,4,2.78-10,14.36-3.18-2.22,7.35-10.5-8.62,5L74,245.78l1.7-9.77Z"/>
   <path class="cls-2" d="M98,244.31l4,1.85-7.38,15.89-4-1.85Z"/>
   <path class="cls-2" d="M118.07,251.78l4.28,1.24-4.22,14.46q-.69,2.36-5.1,1.07L107.81,267q-4.43-1.29-3.73-3.65l4.21-14.45,4.28,1.24-4.11,14.08a.67.67,0,0,0,.1.71,2.74,2.74,0,0,0,1.09.48l2.68.78a2.93,2.93,0,0,0,1.19.19c.2-.05.35-.24.44-.56Z"/>
   <path class="cls-2" d="M131,272.13l-3.86-.27,1.2-17.47,4.83.33,4.49,11.19,6-10.48,4.84.33-1.2,17.48-3.86-.27.88-12.78-4.82,8.7-4-.27-3.6-9.25Z"/>
   <path class="cls-2" d="M171.88,270.23c-3,.69-4.67.24-5-1.37L164,256.59q-.56-2.4,3.94-3.43l5.29-1.22c3-.68,4.63-.22,5,1.38l2.82,12.27c.29,1.24-.43,2.21-2.14,2.91l4,1.81-4.58,1.05-3.72-1.75ZM168.45,256l2.65,11.51c.07.33.21.52.41.58a2.69,2.69,0,0,0,1.15-.1l2.77-.64a2.74,2.74,0,0,0,1.11-.42.64.64,0,0,0,.14-.7L174,254.69c-.08-.33-.23-.52-.44-.57a2.87,2.87,0,0,0-1.18.11l-2.77.64a2.83,2.83,0,0,0-1.09.4A.71.71,0,0,0,168.45,256Z"/>
   <path class="cls-2" d="M192.75,244.9l4.07-1.8,6.09,13.76q1,2.26-3.21,4.12l-5,2.2q-4.22,1.86-5.21-.39L183.43,249l4.08-1.81,5.93,13.41c.13.31.31.47.53.49a3,3,0,0,0,1.14-.34l2.55-1.12a3.07,3.07,0,0,0,1-.63.72.72,0,0,0,0-.71Z"/>
   <path class="cls-2" d="M221.53,248l-3.31-2.64L212.9,249l1.37,4-3.63,2.5L205.17,238l5.28-3.64,14.75,11.11Zm-9.35-1,4.39-3L209,238Z"/>
   <path class="cls-2" d="M232.53,235.92l5.45-5.28,1.42,1.47-8.62,8.35-12.19-12.58,3.17-3.07Z"/>
   <path class="cls-2" d="M230.21,215.74l2.74-3.45,13.71,10.9-2.74,3.45Z"/>
   <path class="cls-2" d="M243.56,195.89l1.75,1.06-2.65,4.4,13.27,8-2.27,3.78-13.26-8-2.65,4.41-1.75-1Z"/>
   <path class="cls-2" d="M264.84,190.45l-1.64,4.15-5.15-2-13.55,1.69,1.65-4.19,10.55-.41-7.5-7.28,1.66-4.19,8.83,10.23Z"/>
</svg>